Coordinates
version=1
nRows=5
nColumns=40
inDegrees=yes

Units are S.I. units (second, meters, Newtons, ...)
If the header above contains a line with 'inDegrees', this indicates whether rotational values are in degrees (yes) or radians (no).

endheader
time	pelvis_tilt	pelvis_list	pelvis_rotation	pelvis_tx	pelvis_ty	pelvis_tz	hip_flexion_r	hip_adduction_r	hip_rotation_r	knee_angle_r	knee_angle_r_beta	ankle_angle_r	subtalar_angle_r	mtp_angle_r	hip_flexion_l	hip_adduction_l	hip_rotation_l	knee_angle_l	knee_angle_l_beta	ankle_angle_l	subtalar_angle_l	mtp_angle_l	lumbar_extension	lumbar_bending	lumbar_rotation	arm_flex_r	arm_add_r	arm_rot_r	elbow_flex_r	pro_sup_r	wrist_flex_r	wrist_dev_r	arm_flex_l	arm_add_l	arm_rot_l	elbow_flex_l	pro_sup_l	wrist_flex_l	wrist_dev_l
      2.00000000	     -2.37107301	     -1.73115719	      3.82604276	     -0.22213963	      1.04054284	     -0.99291948	      7.82274423	    -11.99717660	      2.58144986	     71.49658075	      1.24785074	     -1.04762183	      0.00000000	      0.00000000	     11.06728131	      0.82060865	     -0.19917948	     23.31105470	      0.40685466	      3.15345961	      0.00000000	      0.00000000	     -2.89616315	     -4.23384693	     -6.02548830	     89.82585410	     -6.90884331	     57.02427941	     46.95608504	     84.12775257	      0.00000000	      0.00000000	     89.90168881	    -17.08997508	     56.57749812	     50.10822572	     87.29351862	      0.00000000	      0.00000000
      2.00500000	     -2.40103108	     -1.70829272	      3.73570747	     -0.22220479	      1.04030950	     -0.99280287	      7.72885898	    -11.97336757	      2.63368926	     71.45984111	      1.24720951	     -1.34003692	      0.00000000	      0.00000000	     11.15522273	      0.83510434	     -0.24916356	     23.45604438	      0.40938520	      3.26321311	      0.00000000	      0.00000000	     -2.88519425	     -4.25996270	     -5.92362688	     89.82529529	     -6.87863306	     57.02440850	     46.98467368	     83.47555997	      0.00000000	      0.00000000	     89.90180758	    -17.10661458	     56.56627349	     50.09085312	     87.40577597	      0.00000000	      0.00000000
      2.01000000	     -2.47588949	     -1.74542698	      3.68876814	     -0.22234860	      1.03999219	     -0.99267055	      7.65385642	    -11.92123488	      2.57210404	     71.32672679	      1.24488623	     -1.67399475	      0.00000000	      0.00000000	     11.31268779	      0.80201011	     -0.22305819	     23.59632814	      0.41183362	      3.37681764	      0.00000000	      0.00000000	     -2.83684535	     -4.23346149	     -5.89060604	     89.82446840	     -6.82726393	     56.94638282	     46.92465648	     84.12462595	      0.00000000	      0.00000000	     89.90215080	    -17.12217264	     56.54010056	     50.07109229	     87.28794931	      0.00000000	      0.00000000
      2.01500000	     -2.50771183	     -1.71906478	      3.64217231	     -0.22263732	      1.03978886	     -0.99249191	      7.57955472	    -11.86594558	      2.61645442	     71.37672957	      1.24575894	     -1.69876350	      0.00000000	      0.00000000	     11.42332754	      0.82261988	     -0.25643216	     23.72855635	      0.41414143	      3.43785864	      0.00000000	      0.00000000	     -2.85505712	     -4.27420526	     -5.85894009	     89.82449627	     -6.78188633	     56.90616988	     46.91704475	     84.12694791	      0.00000000	      0.00000000	     89.90247980	    -17.17199143	     56.53268695	     50.12375093	     87.27883731	      0.00000000	      0.00000000
      2.02000000	     -2.66643415	     -1.85436968	      3.64652182	     -0.22304830	      1.03932279	     -0.99223395	      7.64225729	    -11.67006980	      2.54138654	     71.35415732	      1.24536498	     -1.87999607	      0.00000000	      0.00000000	     11.76466503	      0.67525665	     -0.21391134	     24.02120341	      0.41924909	      3.56248028	      0.00000000	      0.00000000	     -2.73182364	     -4.13734106	     -5.92611690	     89.82539654	     -6.63956522	     56.84927270	     46.83520268	     84.12770117	      0.00000000	      0.00000000	     89.90369009	    -17.34846825	     56.50241842	     50.26030390	     87.28112283	      0.00000000	      0.00000000
